<?xml version="1.0" encoding="utf-8"?>
<svg class="c-logo_svg" version="1.1" id="logo" xmlns="http://www.w3.org/2000/svg" xmlns:xlink="http://www.w3.org/1999/xlink" x="0px" y="0px"
	 viewBox="0 0 100 50" style="enable-background:new 0 0 100 50;" xml:space="preserve">
<g>
	<g>
		<text transform="matrix(1 0 0 1 13.1655 40.1787)" style="fill:#057A31; font-family:'Poppins', tahoma, sans-serif; font-size: 1.5em;">C</text>
		<g>
			<circle style="fill:#F4B2B0;" cx="27.8" cy="21.8" r="0.6"/>
			<circle style="fill:#F4B2B0;" cx="31.6" cy="23.3" r="1.1"/>
			<circle style="fill:#F4B2B0;" cx="28.8" cy="25.8" r="1.4"/>
			<circle style="fill:#F4B2B0;" cx="32.6" cy="26.4" r="0.7"/>
			<circle style="fill:#F4B2B0;" cx="33.1" cy="21.5" r="0.6"/>
			<g>
				<path style="fill:#B3404A;" d="M38,22.1L38,22.1c-0.7,0-1.1,0.3-1.4,0.7c-0.1,0.1-0.3,0.3-0.6,0.4c-0.1-0.7-0.4-1.4-0.8-2.1
					l0.4-0.4c0.1-0.1,0.3-0.1,0.6-0.1c0.3,0,0.7-0.1,0.8-0.4l0.3-0.3l0.1-0.1l0,0c0-0.6-0.3-1.1-0.6-1.5c-0.3-0.4-1-0.6-1.5-0.6l0,0
					c-0.1,0-0.1,0-0.1,0.1h-0.6c-0.3,0.3-0.4,0.6-0.4,0.8c0,0.1-0.1,0.4-0.1,0.6l-0.4,0.4c-0.7-0.4-1.4-0.7-2.1-0.8
					c0-0.3,0.1-0.4,0.4-0.6c0.4-0.3,0.7-0.8,0.7-1.3v-0.1c0-0.1,0-0.1-0.1-0.3c-0.6-0.4-1.3-0.6-2-0.6h-0.3c-0.7,0-1.4,0.1-2,0.6
					c-0.1,0-0.1,0.1-0.1,0.3v0.1c0,0.6,0.3,1,0.7,1.3c0.1,0.1,0.3,0.3,0.4,0.6c-0.7,0.1-1.4,0.4-2.1,0.8l-0.4-0.4
					c-0.1-0.1-0.1-0.3-0.1-0.6c0-0.3-0.1-0.7-0.4-0.8L26,17.5l-0.1-0.1l0,0c-0.6,0-1.1,0.3-1.5,0.6c-0.4,0.3-0.6,1-0.6,1.5l0,0
					c0,0.1,0,0.1,0.1,0.1l0.3,0.3c0.3,0.3,0.6,0.4,0.8,0.4c0.1,0,0.4,0.1,0.6,0.1l0.4,0.4c-0.4,0.7-0.7,1.4-0.8,2.1
					c-0.3,0-0.4-0.1-0.6-0.4c-0.3-0.4-0.8-0.7-1.3-0.7h-0.1c-0.1,0-0.1,0-0.3,0.1c-0.4,0.6-0.6,1.3-0.6,2v0.3c0,0.7,0.1,1.4,0.6,2
					c0,0.1,0.1,0.1,0.3,0.1h0.1c0.6,0,1-0.3,1.3-0.7c0.1-0.1,0.3-0.3,0.6-0.4c0.1,0.7,0.4,1.4,0.8,2.1l-0.4,0.4
					c-0.1,0.1-0.3,0.1-0.6,0.1c-0.3,0-0.7,0.1-0.8,0.4l-0.3,0.3l-0.1,0.1l0,0c0,0.6,0.3,1.1,0.6,1.5c0.3,0.4,1,0.6,1.5,0.6l0,0
					c0.1,0,0.1,0,0.1-0.1l0.3-0.3c0.3-0.3,0.4-0.6,0.4-0.8c0-0.1,0.1-0.4,0.1-0.6l0.4-0.4c0.7,0.4,1.4,0.7,2.1,0.8
					c0,0.3-0.1,0.4-0.4,0.6c-0.4,0.3-0.7,0.8-0.7,1.3v0.1c0,0.1,0,0.1,0.1,0.3c0.6,0.4,1.3,0.6,2,0.6h0.3c0.7,0,1.4-0.1,2-0.6
					c0.1,0,0.1-0.1,0.1-0.3v-0.1c0-0.6-0.3-1-0.7-1.3c-0.1-0.1-0.3-0.3-0.4-0.6c0.7-0.1,1.4-0.4,2.1-0.8l0.4,0.4
					c0.1,0.1,0.1,0.3,0.1,0.6c0,0.3,0.1,0.7,0.4,0.8l0.3,0.3l0.1,0.1l0,0c0.6,0,1.1-0.3,1.5-0.6c0.4-0.3,0.6-1,0.6-1.5l0,0
					c0-0.1,0-0.1-0.1-0.1l-0.1-0.1c-0.3-0.3-0.6-0.4-0.8-0.4c-0.1,0-0.4-0.1-0.6-0.1l-0.4-0.4c0.4-0.7,0.7-1.4,0.8-2.1
					c0.3,0,0.4,0.1,0.6,0.4c0.3,0.4,0.8,0.7,1.3,0.7h0.1c0.1,0,0.1,0,0.3-0.1c0.4-0.6,0.6-1.3,0.6-2V24C38.7,23.3,38.5,22.6,38,22.1
					C38.1,22.1,38.1,22.1,38,22.1z M38.3,24.3c0,0.6-0.1,1.1-0.4,1.5c-0.3,0-0.7-0.1-0.8-0.4c-0.3-0.4-0.8-0.7-1.3-0.7
					c-0.6,0-1,0.1-1.4,0.4l-0.3,0.1l0.3,0.4l0.3-0.1c0.3-0.1,0.6-0.3,0.8-0.3c-0.1,0.7-0.4,1.4-1,2c-0.1,0.1-0.1,0.3,0,0.4l0.6,0.6
					c0.3,0.3,0.6,0.4,0.8,0.4c0.1,0,0.4,0.1,0.6,0.1l0.1,0.1c0,0.4-0.1,0.7-0.4,1.1c-0.3,0.3-0.7,0.4-1.1,0.4l-0.1-0.1
					c-0.1-0.1-0.1-0.3-0.1-0.6s-0.1-0.7-0.4-0.8l-0.4-0.6c-0.1-0.1-0.3-0.1-0.4,0c-0.6,0.4-1.3,0.7-2,1c0-0.3,0.1-0.6,0.3-0.8
					l0.1-0.3l-0.4-0.3l-0.1,0.3C31.2,28.6,31,29,31,29.6s0.3,1,0.7,1.3c0.3,0.1,0.4,0.6,0.4,0.8c-0.4,0.3-1,0.4-1.5,0.4h-0.3
					c-0.6,0-1.1-0.1-1.5-0.4c0-0.3,0.1-0.7,0.4-0.8c0.4-0.3,0.7-0.8,0.7-1.3c0-0.6-0.1-1-0.4-1.4l-0.1-0.3l-0.4,0.3l0.1,0.1
					c0.1,0.3,0.3,0.6,0.3,0.8c-0.7-0.1-1.4-0.4-2-1c-0.1-0.1-0.3-0.1-0.4,0l-0.6,0.6C26.1,29,26,29.3,26,29.6c0,0.1-0.1,0.4-0.1,0.6
					l-0.1,0.1c-0.4,0-0.7-0.1-1.1-0.4c-0.4-0.3-0.4-0.7-0.4-1.1l0.1-0.1c0.1-0.1,0.3-0.1,0.6-0.1c0.3,0,0.7-0.1,0.8-0.4l0.6-0.6
					c0.1-0.1,0.1-0.3,0-0.4c-0.4-0.6-0.7-1.3-1-2c0.3,0,0.6,0.1,0.8,0.3l0.3,0.1l0.3-0.4L26.4,25c-0.4-0.3-0.8-0.4-1.4-0.4
					s-1,0.3-1.3,0.7c-0.1,0.3-0.6,0.4-0.8,0.4c-0.3-0.4-0.4-1-0.4-1.5v-0.3c0-0.6,0.1-1.1,0.4-1.5c0.3,0,0.7,0.1,0.8,0.4
					c0.3,0.4,0.8,0.7,1.3,0.7c0.6,0,1-0.1,1.4-0.4l0.3-0.1l-0.3-0.4l-0.1,0.3c-0.3,0.1-0.6,0.3-0.8,0.3c0.1-0.7,0.4-1.4,1-2
					c0.1-0.1,0.1-0.3,0-0.4l-0.6-0.6c-0.3-0.3-0.6-0.4-0.8-0.4c-0.1,0-0.4-0.1-0.6-0.1l-0.1-0.1c0-0.4,0.1-0.7,0.4-1.1
					c0.3-0.4,0.7-0.4,1.1-0.4L26,18c0.1,0.1,0.1,0.3,0.1,0.6c0,0.3,0.1,0.7,0.4,0.8l0.6,0.6c0.1,0.1,0.3,0.1,0.4,0
					c0.6-0.4,1.3-0.7,2-1c0,0.3-0.1,0.6-0.3,0.8l-0.1,0.3l0.4,0.3l0.1-0.3c0.3-0.4,0.4-0.8,0.4-1.4c0-0.6-0.3-1-0.7-1.3
					c-0.3-0.1-0.4-0.6-0.4-0.8c0.4-0.3,1-0.4,1.5-0.4h0.3c0.6,0,1.1,0.1,1.5,0.4c0,0.3-0.1,0.7-0.4,0.8c-0.4,0.3-0.7,0.8-0.7,1.3
					c0,0.6,0.1,1,0.4,1.4l0.1,0.3l0.4-0.3L31.9,20c-0.1-0.3-0.3-0.6-0.3-0.8c0.7,0.1,1.4,0.4,2,1c0.1,0.1,0.3,0.1,0.4,0l0.6-0.6
					c0.3-0.3,0.4-0.6,0.4-0.8c0-0.1,0.1-0.4,0.1-0.6l0.1-0.1c0.4,0,0.7,0.1,1.1,0.4c0.4,0.3,0.4,0.7,0.4,1.1l-0.1,0.1
					c-0.1,0.1-0.3,0.1-0.6,0.1s-0.7,0.1-0.8,0.4l-0.6,0.4c-0.1,0.1-0.1,0.3,0,0.4c0.4,0.6,0.7,1.3,1,2c-0.3,0-0.6-0.1-0.8-0.3
					l-0.3-0.1l-0.3,0.4l0.3,0.1c0.4,0.3,0.8,0.4,1.4,0.4c0.6,0,1-0.3,1.3-0.7c0.1-0.3,0.6-0.4,0.8-0.4c0.3,0.4,0.4,1,0.4,1.5
					L38.3,24.3C38.4,24.3,38.3,24.3,38.3,24.3z"/>
				<path style="fill:#B3404A;" d="M28.5,21.8c0-0.4-0.4-0.8-0.8-0.8s-0.8,0.4-0.8,0.8c0,0.4,0.4,0.8,0.8,0.8
					C28.2,22.5,28.5,22.2,28.5,21.8z M27.5,21.8c0-0.1,0.1-0.3,0.3-0.3c0.1,0,0.3,0.1,0.3,0.3c0,0.1-0.1,0.3-0.3,0.3
					C27.7,22.1,27.5,21.9,27.5,21.8z"/>
				<path style="fill:#B3404A;" d="M32.8,23.3c0-0.7-0.6-1.4-1.4-1.4c-0.7,0-1.4,0.6-1.4,1.4c0,0.7,0.6,1.4,1.4,1.4
					C32.3,24.7,32.8,24.2,32.8,23.3z M30.7,23.3c0-0.4,0.4-0.8,0.8-0.8s0.8,0.4,0.8,0.8c0,0.4-0.4,0.8-0.8,0.8S30.7,23.8,30.7,23.3z
					"/>
				<path style="fill:#B3404A;" d="M28.8,24.2c-0.8,0-1.7,0.7-1.7,1.7c0,0.8,0.7,1.7,1.7,1.7c0.8,0,1.7-0.7,1.7-1.7
					S29.8,24.2,28.8,24.2z M28.8,26.8c-0.6,0-1.1-0.4-1.1-1.1c0-0.7,0.4-1.1,1.1-1.1c0.6,0,1.1,0.4,1.1,1.1
					C29.9,26.4,29.5,26.8,28.8,26.8z"/>
				<path style="fill:#B3404A;" d="M32.6,25.6c-0.6,0-1,0.4-1,1s0.4,1,1,1c0.6,0,1-0.4,1-1C33.4,26,33,25.6,32.6,25.6z M32.6,26.8
					c-0.3,0-0.4-0.1-0.4-0.4c0-0.3,0.1-0.4,0.4-0.4c0.3,0,0.4,0.1,0.4,0.4C33,26.7,32.7,26.8,32.6,26.8z"/>
				<path style="fill:#B3404A;" d="M33.1,20.7c-0.4,0-0.8,0.4-0.8,0.8s0.4,0.8,0.8,0.8s0.8-0.4,0.8-0.8C33.9,21,33.7,20.7,33.1,20.7
					z M33.1,21.8c-0.1,0-0.3-0.1-0.3-0.3c0-0.1,0.1-0.3,0.3-0.3c0.1,0,0.3,0.1,0.3,0.3C33.4,21.7,33.2,21.8,33.1,21.8z"/>
			</g>
		</g>
	</g>
	<text class="c-logo__text" transform="matrix(1 0 0 1 48.1665 21.7363)" style="font-family:'Poppins', tahoma, sans-serif; font-size: 0.5em;">URB</text>
	<text class="c-logo__text" transform="matrix(1 0 0 1 48.1665 40.1787)" style="font-family:'Poppins', tahoma, sans-serif; font-size: 0.5em;">OVID</text>
</g>
</svg>
