<?xml version="1.0" encoding="UTF-8"?>
<svg enable-background="new 0 0 100 50" version="1.1" viewBox="0 0 100 50" xml:space="preserve" xmlns="http://www.w3.org/2000/svg">
	<text transform="translate(13.166 40.179)" fill="#057A31" font-family="tahoma" font-size="45.614px">C</text>
	<rect x="48.2" y="9.7" width="29.8" height="14.6" fill="none"/>
	<text transform="translate(48.166 21.736)" font-family="tahoma" font-size="17px">URB</text>
		<rect x="60.6" y="28" width="47.3" height="13" fill="none"/>
		<text transform="translate(60.583 40.07)" font-family="tahoma" font-size="17px">VID</text>
			<circle cx="52.1" cy="32.3" r=".4" fill="#F4B2B0"/>
			<circle cx="54.8" cy="33.4" r=".8" fill="#F4B2B0"/>
			<circle cx="52.8" cy="35.2" r="1" fill="#F4B2B0"/>
			<circle cx="55.5" cy="35.6" r=".5" fill="#F4B2B0"/>
			<circle cx="55.9" cy="32.1" r=".4" fill="#F4B2B0"/>
			<g fill="#B3404A">
				<path d="m59.4 32.5c-0.5 0-0.8 0.2-1 0.5-0.1 0.1-0.2 0.2-0.4 0.3-0.1-0.5-0.3-1-0.6-1.5l0.3-0.3c0.1-0.1 0.2-0.1 0.4-0.1s0.5-0.1 0.6-0.3l0.3-0.3c0-0.4-0.2-0.8-0.4-1.1s-0.7-0.4-1.1-0.4c-0.1 0-0.1 0-0.1 0.1h-0.4c-0.2 0.2-0.3 0.4-0.3 0.6 0 0.1-0.1 0.3-0.1 0.4l-0.3 0.3c-0.5-0.3-1-0.5-1.5-0.6 0-0.2 0.1-0.3 0.3-0.4 0.3-0.2 0.5-0.6 0.5-0.9v-0.1c0-0.1 0-0.1-0.1-0.2-0.4-0.3-0.9-0.4-1.4-0.4h-0.2c-0.5 0-1 0.1-1.4 0.4-0.1 0-0.1 0.1-0.1 0.2v0.1c0 0.4 0.2 0.7 0.5 0.9 0.1 0.1 0.2 0.2 0.3 0.4-0.5 0.1-1 0.3-1.5 0.6l-0.3-0.3c-0.1-0.1-0.1-0.2-0.1-0.4s-0.1-0.5-0.3-0.6l-0.3-0.3c-0.4 0-0.8 0.2-1.1 0.4s-0.4 0.7-0.4 1.1c0 0.1 0 0.1 0.1 0.1l0.2 0.2c0.2 0.2 0.4 0.3 0.6 0.3 0.1 0 0.3 0.1 0.4 0.1l0.3 0.3c-0.3 0.5-0.5 1-0.6 1.5-0.2 0-0.3-0.1-0.4-0.3-0.2-0.3-0.6-0.5-0.9-0.5h-0.1c-0.1 0-0.1 0-0.2 0.1-0.3 0.4-0.4 0.9-0.4 1.4v0.2c0 0.5 0.1 1 0.4 1.4 0 0.1 0.1 0.1 0.2 0.1h0.1c0.4 0 0.7-0.2 0.9-0.5 0.1-0.1 0.2-0.2 0.4-0.3 0.1 0.5 0.3 1 0.6 1.5l-0.3 0.3c-0.1 0.1-0.2 0.1-0.4 0.1s-0.5 0.1-0.6 0.3l-0.3 0.3c0 0.4 0.2 0.8 0.4 1.1s0.7 0.4 1.1 0.4c0.1 0 0.1 0 0.1-0.1l0.2-0.2c0.2-0.2 0.3-0.4 0.3-0.6 0-0.1 0.1-0.3 0.1-0.4l0.3-0.3c0.5 0.3 1 0.5 1.5 0.6 0 0.2-0.1 0.3-0.3 0.4-0.3 0.2-0.5 0.6-0.5 0.9v0.1c0 0.1 0 0.1 0.1 0.2 0.4 0.3 0.9 0.4 1.4 0.4h0.2c0.5 0 1-0.1 1.4-0.4 0.1 0 0.1-0.1 0.1-0.2v-0.1c0-0.4-0.2-0.7-0.5-0.9-0.1-0.1-0.2-0.2-0.3-0.4 0.5-0.1 1-0.3 1.5-0.6l0.3 0.3c0.1 0.1 0.1 0.2 0.1 0.4s0.1 0.5 0.3 0.6l0.3 0.3c0.4 0 0.8-0.2 1.1-0.4s0.4-0.7 0.4-1.1c0-0.1 0-0.1-0.1-0.1l-0.1-0.1c-0.2-0.2-0.4-0.3-0.6-0.3-0.1 0-0.3-0.1-0.4-0.1l-0.3-0.3c0.3-0.5 0.5-1 0.6-1.5 0.2 0 0.3 0.1 0.4 0.3 0.2 0.3 0.6 0.5 0.9 0.5h0.1c0.1 0 0.1 0 0.2-0.1 0.3-0.4 0.4-0.9 0.4-1.4v-0.2c0-0.5-0.1-1-0.4-1.4h-0.1zm0.2 1.6c0 0.4-0.1 0.8-0.3 1.1-0.2 0-0.5-0.1-0.6-0.3-0.2-0.3-0.6-0.5-0.9-0.5-0.4 0-0.7 0.1-1 0.3l-0.2 0.1 0.2 0.3 0.2-0.1c0.2-0.1 0.4-0.2 0.6-0.2-0.1 0.5-0.3 1-0.7 1.4-0.1 0.1-0.1 0.2 0 0.3l0.4 0.4c0.2 0.2 0.4 0.3 0.6 0.3 0.1 0 0.3 0.1 0.4 0.1l0.1 0.1c0 0.3-0.1 0.5-0.3 0.8-0.2 0.2-0.5 0.3-0.8 0.3l-0.1-0.1c-0.1-0.1-0.1-0.2-0.1-0.4s-0.1-0.5-0.3-0.6l-0.3-0.4c-0.1-0.1-0.2-0.1-0.3 0-0.4 0.3-0.9 0.5-1.4 0.7 0-0.2 0.1-0.4 0.2-0.6l0.1-0.2-0.3-0.2-0.1 0.2c-0.2 0.3-0.3 0.6-0.3 1s0.2 0.7 0.5 0.9c0.2 0.1 0.3 0.4 0.3 0.6-0.3 0.2-0.7 0.3-1.1 0.3h-0.2c-0.4 0-0.8-0.1-1.1-0.3 0-0.2 0.1-0.5 0.3-0.6 0.3-0.2 0.5-0.6 0.5-0.9 0-0.4-0.1-0.7-0.3-1l-0.1-0.2-0.3 0.2 0.1 0.1c0.1 0.2 0.2 0.4 0.2 0.6-0.5-0.1-1-0.3-1.4-0.7-0.1-0.1-0.2-0.1-0.3 0l-0.4 0.4c-0.2 0.2-0.3 0.4-0.3 0.6 0 0.1-0.1 0.3-0.1 0.4l-0.1 0.1c-0.3 0-0.5-0.1-0.8-0.3s-0.3-0.5-0.3-0.8l0.1-0.1c0.1-0.1 0.2-0.1 0.4-0.1s0.5-0.1 0.6-0.3l0.4-0.4c0.1-0.1 0.1-0.2 0-0.3-0.3-0.4-0.5-0.9-0.7-1.4 0.2 0 0.4 0.1 0.6 0.2l0.2 0.1 0.2-0.3-0.2-0.1c-0.3-0.2-0.6-0.3-1-0.3s-0.7 0.2-0.9 0.5c-0.1 0.2-0.4 0.3-0.6 0.3-0.2-0.3-0.3-0.7-0.3-1.1v-0.2c0-0.4 0.1-0.8 0.3-1.1 0.2 0 0.5 0.1 0.6 0.3 0.2 0.3 0.6 0.5 0.9 0.5 0.4 0 0.7-0.1 1-0.3l0.2-0.1-0.2-0.3-0.1 0.2c-0.2 0.1-0.4 0.2-0.6 0.2 0.1-0.5 0.3-1 0.7-1.4 0.1-0.1 0.1-0.2 0-0.3l-0.4-0.4c-0.2-0.2-0.4-0.3-0.6-0.3-0.1 0-0.3-0.1-0.4-0.1l-0.1-0.1c0-0.3 0.1-0.5 0.3-0.8s0.5-0.3 0.8-0.3l0.1 0.1c0.1 0.1 0.1 0.2 0.1 0.4s0.1 0.5 0.3 0.6l0.4 0.4c0.1 0.1 0.2 0.1 0.3 0 0.4-0.3 0.9-0.5 1.4-0.7 0 0.2-0.1 0.4-0.2 0.6l-0.1 0.2 0.3 0.2 0.1-0.2c0.2-0.3 0.3-0.6 0.3-1s-0.2-0.7-0.5-0.9c-0.2-0.1-0.3-0.4-0.3-0.6 0.3-0.2 0.7-0.3 1.1-0.3h0.2c0.4 0 0.8 0.1 1.1 0.3 0 0.2-0.1 0.5-0.3 0.6-0.3 0.2-0.5 0.6-0.5 0.9 0 0.4 0.1 0.7 0.3 1l0.1 0.2 0.3-0.2-0.2-0.1c-0.1-0.2-0.2-0.4-0.2-0.6 0.5 0.1 1 0.3 1.4 0.7 0.1 0.1 0.2 0.1 0.3 0l0.4-0.4c0.2-0.2 0.3-0.4 0.3-0.6 0-0.1 0.1-0.3 0.1-0.4l0.1-0.1c0.3 0 0.5 0.1 0.8 0.3s0.3 0.5 0.3 0.8l-0.1 0.1c-0.1 0.1-0.2 0.1-0.4 0.1s-0.5 0.1-0.6 0.3l-0.4 0.3c-0.1 0.1-0.1 0.2 0 0.3 0.3 0.4 0.5 0.9 0.7 1.4-0.2 0-0.4-0.1-0.6-0.2l-0.2-0.1-0.2 0.3 0.2 0.1c0.3 0.2 0.6 0.3 1 0.3s0.7-0.2 0.9-0.5c0.1-0.2 0.4-0.3 0.6-0.3 0.2 0.3 0.3 0.7 0.3 1.1v0.2z"/>
				<path d="m52.6 32.3c0-0.3-0.3-0.6-0.6-0.6s-0.6 0.3-0.6 0.6 0.3 0.6 0.6 0.6c0.4-0.1 0.6-0.3 0.6-0.6zm-0.7 0c0-0.1 0.1-0.2 0.2-0.2s0.2 0.1 0.2 0.2-0.1 0.2-0.2 0.2-0.2-0.1-0.2-0.2z"/>
				<path d="m55.7 33.4c0-0.5-0.4-1-1-1-0.5 0-1 0.4-1 1 0 0.5 0.4 1 1 1s1-0.4 1-1zm-1.5 0c0-0.3 0.3-0.6 0.6-0.6s0.6 0.3 0.6 0.6-0.3 0.6-0.6 0.6-0.6-0.3-0.6-0.6z"/>
				<path d="m52.8 34c-0.6 0-1.2 0.5-1.2 1.2 0 0.6 0.5 1.2 1.2 1.2 0.6 0 1.2-0.5 1.2-1.2s-0.5-1.2-1.2-1.2zm0 1.9c-0.4 0-0.8-0.3-0.8-0.8s0.3-0.8 0.8-0.8c0.4 0 0.8 0.3 0.8 0.8s-0.3 0.8-0.8 0.8z"/>
				<path d="m55.5 35c-0.4 0-0.7 0.3-0.7 0.7s0.3 0.7 0.7 0.7 0.7-0.3 0.7-0.7c-0.1-0.4-0.4-0.7-0.7-0.7zm0 0.9c-0.2 0-0.3-0.1-0.3-0.3s0.1-0.3 0.3-0.3 0.3 0.1 0.3 0.3-0.2 0.3-0.3 0.3z"/>
				<path d="m55.9 31.5c-0.3 0-0.6 0.3-0.6 0.6s0.3 0.6 0.6 0.6 0.6-0.3 0.6-0.6c0-0.4-0.2-0.6-0.6-0.6zm0 0.8c-0.1 0-0.2-0.1-0.2-0.2s0.1-0.2 0.2-0.2 0.2 0.1 0.2 0.2-0.1 0.2-0.2 0.2z"/>
			</g>
</svg>
