<?xml version="1.0" encoding="utf-8"?>
<svg version="1.1" id="logo" xmlns="http://www.w3.org/2000/svg" xmlns:xlink="http://www.w3.org/1999/xlink" x="0px" y="0px"
	 viewBox="0 0 100 50" style="enable-background:new 0 0 100 50;" xml:space="preserve">
<g>
	<g>
		<text transform="matrix(1 0 0 1 13.1655 40.1787)" style="fill:#057A31; font-family:'Poppins'; font-size:45px;">C</text>
		<g>
			<circle style="fill:#F4B2B0;" cx="28.4" cy="22.7" r="0.4"/>
			<circle style="fill:#F4B2B0;" cx="31.1" cy="23.8" r="0.8"/>
			<circle style="fill:#F4B2B0;" cx="29.1" cy="25.6" r="1"/>
			<circle style="fill:#F4B2B0;" cx="31.8" cy="26" r="0.5"/>
			<circle style="fill:#F4B2B0;" cx="32.2" cy="22.5" r="0.4"/>
			<g>
				<path style="fill:#B3404A;" d="M35.7,22.9L35.7,22.9c-0.5,0-0.8,0.2-1,0.5c-0.1,0.1-0.2,0.2-0.4,0.3c-0.1-0.5-0.3-1-0.6-1.5
					l0.3-0.3c0.1-0.1,0.2-0.1,0.4-0.1s0.5-0.1,0.6-0.3l0.2-0.2l0.1-0.1l0,0c0-0.4-0.2-0.8-0.4-1.1s-0.7-0.4-1.1-0.4l0,0
					c-0.1,0-0.1,0-0.1,0.1h-0.4C33.1,20,33,20.2,33,20.4c0,0.1-0.1,0.3-0.1,0.4l-0.3,0.3c-0.5-0.3-1-0.5-1.5-0.6
					c0-0.2,0.1-0.3,0.3-0.4c0.3-0.2,0.5-0.6,0.5-0.9v-0.1c0-0.1,0-0.1-0.1-0.2c-0.4-0.3-0.9-0.4-1.4-0.4h-0.2c-0.5,0-1,0.1-1.4,0.4
					c-0.1,0-0.1,0.1-0.1,0.2v0.1c0,0.4,0.2,0.7,0.5,0.9c0.1,0.1,0.2,0.2,0.3,0.4c-0.5,0.1-1,0.3-1.5,0.6l-0.3-0.3
					c-0.1-0.1-0.1-0.2-0.1-0.4c0-0.2-0.1-0.5-0.3-0.6l-0.2-0.2L27,19.5l0,0c-0.4,0-0.8,0.2-1.1,0.4s-0.4,0.7-0.4,1.1l0,0
					c0,0.1,0,0.1,0.1,0.1l0.2,0.2c0.2,0.2,0.4,0.3,0.6,0.3c0.1,0,0.3,0.1,0.4,0.1l0.3,0.3c-0.3,0.5-0.5,1-0.6,1.5
					c-0.2,0-0.3-0.1-0.4-0.3c-0.2-0.3-0.6-0.5-0.9-0.5h-0.1c-0.1,0-0.1,0-0.2,0.1c-0.3,0.4-0.4,0.9-0.4,1.4v0.2c0,0.5,0.1,1,0.4,1.4
					c0,0.1,0.1,0.1,0.2,0.1h0.1c0.4,0,0.7-0.2,0.9-0.5c0.1-0.1,0.2-0.2,0.4-0.3c0.1,0.5,0.3,1,0.6,1.5l-0.3,0.3
					C26.7,27,26.6,27,26.4,27s-0.5,0.1-0.6,0.3l-0.2,0.2l-0.1,0.1l0,0c0,0.4,0.2,0.8,0.4,1.1s0.7,0.4,1.1,0.4l0,0
					c0.1,0,0.1,0,0.1-0.1l0.2-0.2c0.2-0.2,0.3-0.4,0.3-0.6c0-0.1,0.1-0.3,0.1-0.4l0.3-0.3c0.5,0.3,1,0.5,1.5,0.6
					c0,0.2-0.1,0.3-0.3,0.4c-0.3,0.2-0.5,0.6-0.5,0.9v0.1c0,0.1,0,0.1,0.1,0.2c0.4,0.3,0.9,0.4,1.4,0.4h0.2c0.5,0,1-0.1,1.4-0.4
					c0.1,0,0.1-0.1,0.1-0.2v-0.1c0-0.4-0.2-0.7-0.5-0.9c-0.1-0.1-0.2-0.2-0.3-0.4c0.5-0.1,1-0.3,1.5-0.6l0.3,0.3
					C33,27.9,33,28,33,28.2s0.1,0.5,0.3,0.6l0.2,0.2l0.1,0.1l0,0c0.4,0,0.8-0.2,1.1-0.4s0.4-0.7,0.4-1.1l0,0c0-0.1,0-0.1-0.1-0.1
					l-0.1-0.1c-0.2-0.2-0.4-0.3-0.6-0.3c-0.1,0-0.3-0.1-0.4-0.1l-0.3-0.3c0.3-0.5,0.5-1,0.6-1.5c0.2,0,0.3,0.1,0.4,0.3
					c0.2,0.3,0.6,0.5,0.9,0.5h0.1c0.1,0,0.1,0,0.2-0.1c0.3-0.4,0.4-0.9,0.4-1.4v-0.2C36.2,23.8,36.1,23.3,35.7,22.9
					C35.8,22.9,35.8,22.9,35.7,22.9z M35.9,24.5c0,0.4-0.1,0.8-0.3,1.1c-0.2,0-0.5-0.1-0.6-0.3c-0.2-0.3-0.6-0.5-0.9-0.5
					c-0.4,0-0.7,0.1-1,0.3l-0.2,0.1l0.2,0.3l0.2-0.1c0.2-0.1,0.4-0.2,0.6-0.2c-0.1,0.5-0.3,1-0.7,1.4c-0.1,0.1-0.1,0.2,0,0.3
					l0.4,0.4c0.2,0.2,0.4,0.3,0.6,0.3c0.1,0,0.3,0.1,0.4,0.1l0.1,0.1c0,0.3-0.1,0.5-0.3,0.8c-0.2,0.2-0.5,0.3-0.8,0.3l-0.1-0.1
					c-0.1-0.1-0.1-0.2-0.1-0.4s-0.1-0.5-0.3-0.6l-0.3-0.4c-0.1-0.1-0.2-0.1-0.3,0c-0.4,0.3-0.9,0.5-1.4,0.7c0-0.2,0.1-0.4,0.2-0.6
					l0.1-0.2l-0.3-0.2L31,27.3c-0.2,0.3-0.3,0.6-0.3,1s0.2,0.7,0.5,0.9c0.2,0.1,0.3,0.4,0.3,0.6c-0.3,0.2-0.7,0.3-1.1,0.3h-0.2
					c-0.4,0-0.8-0.1-1.1-0.3c0-0.2,0.1-0.5,0.3-0.6c0.3-0.2,0.5-0.6,0.5-0.9c0-0.4-0.1-0.7-0.3-1l-0.1-0.2l-0.3,0.2l0.1,0.1
					c0.1,0.2,0.2,0.4,0.2,0.6c-0.5-0.1-1-0.3-1.4-0.7c-0.1-0.1-0.2-0.1-0.3,0l-0.4,0.4c-0.2,0.2-0.3,0.4-0.3,0.6
					c0,0.1-0.1,0.3-0.1,0.4l-0.1,0.1c-0.3,0-0.5-0.1-0.8-0.3s-0.3-0.5-0.3-0.8l0.1-0.1c0.1-0.1,0.2-0.1,0.4-0.1s0.5-0.1,0.6-0.3
					l0.4-0.4c0.1-0.1,0.1-0.2,0-0.3c-0.3-0.4-0.5-0.9-0.7-1.4c0.2,0,0.4,0.1,0.6,0.2l0.2,0.1l0.2-0.3L27.4,25
					c-0.3-0.2-0.6-0.3-1-0.3s-0.7,0.2-0.9,0.5c-0.1,0.2-0.4,0.3-0.6,0.3c-0.2-0.3-0.3-0.7-0.3-1.1v-0.2c0-0.4,0.1-0.8,0.3-1.1
					c0.2,0,0.5,0.1,0.6,0.3c0.2,0.3,0.6,0.5,0.9,0.5c0.4,0,0.7-0.1,1-0.3l0.2-0.1l-0.2-0.3l-0.1,0.2c-0.2,0.1-0.4,0.2-0.6,0.2
					c0.1-0.5,0.3-1,0.7-1.4c0.1-0.1,0.1-0.2,0-0.3L27,21.5c-0.2-0.2-0.4-0.3-0.6-0.3c-0.1,0-0.3-0.1-0.4-0.1L25.9,21
					c0-0.3,0.1-0.5,0.3-0.8s0.5-0.3,0.8-0.3l0.1,0.1c0.1,0.1,0.1,0.2,0.1,0.4c0,0.2,0.1,0.5,0.3,0.6l0.4,0.4c0.1,0.1,0.2,0.1,0.3,0
					c0.4-0.3,0.9-0.5,1.4-0.7c0,0.2-0.1,0.4-0.2,0.6l-0.1,0.2l0.3,0.2l0.1-0.2c0.2-0.3,0.3-0.6,0.3-1s-0.2-0.7-0.5-0.9
					c-0.2-0.1-0.3-0.4-0.3-0.6c0.3-0.2,0.7-0.3,1.1-0.3h0.2c0.4,0,0.8,0.1,1.1,0.3c0,0.2-0.1,0.5-0.3,0.6c-0.3,0.2-0.5,0.6-0.5,0.9
					c0,0.4,0.1,0.7,0.3,1l0.1,0.2l0.3-0.2l-0.2-0.1c-0.1-0.2-0.2-0.4-0.2-0.6c0.5,0.1,1,0.3,1.4,0.7c0.1,0.1,0.2,0.1,0.3,0l0.4-0.4
					c0.2-0.2,0.3-0.4,0.3-0.6c0-0.1,0.1-0.3,0.1-0.4l0.1-0.1c0.3,0,0.5,0.1,0.8,0.3s0.3,0.5,0.3,0.8l-0.1,0.1
					c-0.1,0.1-0.2,0.1-0.4,0.1s-0.5,0.1-0.6,0.3l-0.4,0.3c-0.1,0.1-0.1,0.2,0,0.3c0.3,0.4,0.5,0.9,0.7,1.4c-0.2,0-0.4-0.1-0.6-0.2
					l-0.2-0.1L33,23.6l0.2,0.1c0.3,0.2,0.6,0.3,1,0.3s0.7-0.2,0.9-0.5c0.1-0.2,0.4-0.3,0.6-0.3c0.2,0.3,0.3,0.7,0.3,1.1L35.9,24.5
					C36,24.5,35.9,24.5,35.9,24.5z"/>
				<path style="fill:#B3404A;" d="M28.9,22.7c0-0.3-0.3-0.6-0.6-0.6s-0.6,0.3-0.6,0.6c0,0.3,0.3,0.6,0.6,0.6
					C28.7,23.2,28.9,23,28.9,22.7z M28.2,22.7c0-0.1,0.1-0.2,0.2-0.2s0.2,0.1,0.2,0.2s-0.1,0.2-0.2,0.2S28.2,22.8,28.2,22.7z"/>
				<path style="fill:#B3404A;" d="M32,23.8c0-0.5-0.4-1-1-1c-0.5,0-1,0.4-1,1c0,0.5,0.4,1,1,1S32,24.4,32,23.8z M30.5,23.8
					c0-0.3,0.3-0.6,0.6-0.6s0.6,0.3,0.6,0.6s-0.3,0.6-0.6,0.6S30.5,24.1,30.5,23.8z"/>
				<path style="fill:#B3404A;" d="M29.1,24.4c-0.6,0-1.2,0.5-1.2,1.2c0,0.6,0.5,1.2,1.2,1.2c0.6,0,1.2-0.5,1.2-1.2
					S29.8,24.4,29.1,24.4z M29.1,26.3c-0.4,0-0.8-0.3-0.8-0.8s0.3-0.8,0.8-0.8c0.4,0,0.8,0.3,0.8,0.8S29.6,26.3,29.1,26.3z"/>
				<path style="fill:#B3404A;" d="M31.8,25.4c-0.4,0-0.7,0.3-0.7,0.7s0.3,0.7,0.7,0.7s0.7-0.3,0.7-0.7
					C32.4,25.7,32.1,25.4,31.8,25.4z M31.8,26.3c-0.2,0-0.3-0.1-0.3-0.3s0.1-0.3,0.3-0.3s0.3,0.1,0.3,0.3S31.9,26.3,31.8,26.3z"/>
				<path style="fill:#B3404A;" d="M32.2,21.9c-0.3,0-0.6,0.3-0.6,0.6s0.3,0.6,0.6,0.6c0.3,0,0.6-0.3,0.6-0.6
					C32.8,22.1,32.6,21.9,32.2,21.9z M32.2,22.7c-0.1,0-0.2-0.1-0.2-0.2s0.1-0.2,0.2-0.2c0.1,0,0.2,0.1,0.2,0.2S32.3,22.7,32.2,22.7
					z"/>
			</g>
		</g>
	</g>
	<text class="c-logo__text" transform="matrix(1 0 0 1 48.1665 21.7363)" style="font-family:'Poppins'; font-size:15px;">URB</text>
	<text class="c-logo__text" transform="matrix(1 0 0 1 48.1665 40.1787)" style="font-family:'Poppins'; font-size:15px;">OVID</text>
</g>
</svg>
