<?xml version="1.0" encoding="utf-8"?>
<svg class="c-logo__svg" version="1.1" id="logo" xmlns="http://www.w3.org/2000/svg" xmlns:xlink="http://www.w3.org/1999/xlink" x="0px" y="0px"
	 viewBox="0 0 150 175" style="enable-background:new 0 0 150 175;" xml:space="preserve">
<text class="c-logo__text c-logo__text--big"transform="matrix(1.0278 0 0 1 -5.5156 166.123)">C</text>
<g>
	<circle style="fill:#F4B2B0;" cx="66.7" cy="78" r="3.2"/>
	<circle style="fill:#F4B2B0;" cx="86.2" cy="86.6" r="5.4"/>
	<circle style="fill:#F4B2B0;" cx="72.1" cy="99.6" r="6.5"/>
	<circle style="fill:#F4B2B0;" cx="91.5" cy="102.8" r="3.2"/>
	<circle style="fill:#F4B2B0;" cx="94.8" cy="76.9" r="3.2"/>
	<g>
		<path style="fill:#B3404A;" d="M119.6,80.2L119.6,80.2c-3.2,0-5.4,1.1-7.5,3.2c-1.1,1.1-2.2,2.2-3.2,2.2
			c-1.1-4.3-2.2-7.5-4.3-10.8l2.2-2.2c1.1-1.1,1.1-1.1,2.2-1.1c2.2,0,3.2-1.1,4.3-2.2l1.1-1.1v-1.1l0,0c0-3.2-1.1-5.4-3.2-7.5
			c-2.2-2.2-4.3-3.2-7.5-3.2l0,0h-1.1v1.1c-1.1,1.1-2.2,3.2-2.2,4.3s0,2.2-1.1,2.2l-2.2,2.2c-3.2-2.2-6.5-4.3-10.8-4.3
			c0-1.1,1.1-2.2,2.2-3.2c2.2-1.1,3.2-3.2,3.2-5.4v-1.1c0,0,0-1.1-1.1-1.1c-2.2-2.2-5.4-3.2-8.6-3.2h-2.2c-3.2,0-6.5,1.1-9.7,3.2
			c0,0,0,0,0,1.1v1.1c0,2.2,1.1,5.4,3.2,6.5c1.1,1.1,2.2,2.2,2.2,3.2c-4.3,1.1-7.5,2.2-10.8,4.3l-2.2-2.2c-1.1-1.1-1.1-2.2-1.1-2.2
			c0-2.2-1.1-4.3-2.2-5.4l-1.1-1.1H57l0,0c-3.2,0-5.4,1.1-7.5,3.2c-2.2,2.2-3.2,4.3-3.2,7.5l0,0v1.1l1.1,1.1
			c1.1,1.1,3.2,2.2,5.4,2.2c1.1,0,2.2,0,2.2,1.1l2.2,2.2c-2.2,3.2-4.3,6.5-4.3,10.8c-1.1,0-2.2-1.1-3.2-2.2
			c-2.2-2.2-4.3-3.2-6.5-3.2h-1.1c0,0-1.1,0-1.1,1.1c-2.2,2.2-3.2,5.4-3.2,8.6V91c0,4.3,1.1,7.5,3.2,10.8c0,0,0,0,1.1,0H43
			c2.2,0,5.4-1.1,6.5-3.2c1.1-1.1,2.2-2.2,3.2-2.2c1.1,4.3,2.2,7.5,4.3,10.8l-2.2,2.2c-1.1,1.1-2.2,1.1-2.2,1.1
			c-2.2,0-4.3,1.1-5.4,2.2l-1.1,1.1v1.1l0,0c0,3.2,1.1,5.4,3.2,7.5c2.2,2.2,4.3,3.2,7.5,3.2l0,0h1.1l1.1-1.1
			c1.1-1.1,2.2-3.2,2.2-4.3s0-2.2,1.1-2.2l2.2-2.2c3.2,2.2,6.5,4.3,10.8,4.3c0,1.1-1.1,2.2-2.2,3.2c-2.2,1.1-3.2,3.2-3.2,5.4v1.1
			c0,0,0,1.1,1.1,1.1c2.2,2.2,5.4,3.2,8.6,3.2h1.1c3.2,0,6.5-1.1,9.7-3.2l1.1-1.1v-1.1c0-2.2-1.1-5.4-3.2-6.5
			c-1.1-1.1-2.2-2.2-2.2-3.2c4.3-1.1,7.5-2.2,10.8-4.3l2.2,2.2c1.1,1.1,1.1,1.1,1.1,2.2c0,2.2,1.1,3.2,2.2,4.3l1.1,1.1h1.1l0,0
			c3.2,0,5.4-1.1,7.5-3.2s3.2-4.3,3.2-7.5l0,0v-1.1h-1.1c-1.1-1.1-3.2-2.2-4.3-2.2s-2.2,0-2.2-1.1l-2.2-2.2
			c2.2-3.2,4.3-6.5,4.3-10.8c1.1,0,2.2,1.1,3.2,2.2c1.1,2.2,3.2,3.2,5.4,3.2h1.1c0,0,1.1,0,1.1-1.1c2.2-2.2,3.2-5.4,3.2-8.6v-2.2
			C123.9,86.6,122.8,83.4,119.6,80.2C120.7,80.2,120.7,80.2,119.6,80.2z M120.7,92c0,3.2-1.1,5.4-2.2,7.5c-2.2,0-3.2-1.1-4.3-2.2
			c-1.1-2.2-4.3-3.2-6.5-3.2s-5.4,1.1-7.5,2.2l-1.1,1.1l1.1,2.2l2.2-1.1c1.1-1.1,3.2-1.1,4.3-1.1c-1.1,3.2-2.2,7.5-4.3,9.7
			c0,1.1,0,1.1,0,2.2l3.2,3.2c1.1,1.1,3.2,2.2,4.3,2.2c1.1,0,2.2,0,2.2,1.1l1.1,1.1c0,2.2-1.1,4.3-2.2,5.4s-4.3,1.1-6.5,1.1
			l-1.1-1.1c-1.1-1.1-1.1-1.1-1.1-2.2c0-2.2-1.1-3.2-2.2-4.3l-2.2-3.2c0,0-1.1-1.1-2.2,0c-3.2,2.2-6.5,4.3-9.7,4.3
			c0-1.1,1.1-3.2,1.1-4.3l1.1-1.1l-2.2-1.1l-1.1,1.1c-1.1,2.2-2.2,4.3-2.2,7.5c0,2.2,1.1,5.4,3.2,6.5c1.1,1.1,2.2,2.2,2.2,4.3
			c-2.2,1.1-5.4,2.2-7.5,2.2h-1.1c-3.2,0-5.4-1.1-7.5-2.2c0-2.2,1.1-3.2,2.2-4.3c2.2-1.1,3.2-4.3,3.2-6.5s-1.1-5.4-2.2-7.5v-2.2
			l-3.2,2.2l1.1,1.1c1.1,1.1,1.1,3.2,1.1,4.3c-3.2-1.1-7.5-2.2-9.7-4.3c-1.1,0-1.1,0-2.2,0l-3.2,3.2c-1.1,1.1-2.2,3.2-2.2,4.3
			c0,1.1,0,2.2-1.1,2.2l1.1,1.1c-2.2,0-4.3-1.1-5.4-2.2c-1.1-1.1-3.2-4.3-3.2-6.5l1.1-1.1c1.1-1.1,1.1-1.1,2.2-1.1
			c2.2,0,3.2-1.1,4.3-2.2l3.2-2.2c0,0,1.1-1.1,0-2.2c-2.2-2.2-3.2-5.4-4.3-9.7c1.1,0,3.2,1.1,4.3,1.1l1.1,1.1l1.1-2.2h-1.1
			C58,94,55.9,94,53.7,94c-3.2,0-5.4,1.1-6.5,3.2c-1.1,1.1-3.2,2.2-4.3,2.2c-2.2-2.2-2.2-5.4-2.2-7.5v-2.2c0-3.2,1.1-5.4,2.2-7.5
			c2.2,0,3.2,1.1,4.3,2.2c1.1,2.2,3.2,3.2,6.5,3.2c2.2,0,5.4-1.1,7.5-2.2l1.1-1.1l-2.2-2.2L59,83.2c-1.1,1.1-3.2,2.2-4.3,2.2
			C56,81.2,57,78,59.2,74.8c0-1.1,0-1.1,0-2.2L57,70.4c-1.1-1.1-3.2-2.2-4.3-2.2s-2.2,0-2.2-1.1h-2.2c0-2.2,1.1-4.3,2.2-5.4
			s4.3-3.2,6.5-3.2l1.1,1.1c1.1,1.1,1.1,1.1,1.1,2.2c0,2.2,1.1,3.2,2.2,4.3l2.2,3.2c0,0,1.1,1.1,2.2,0c3.2-2.2,6.5-4.3,9.7-4.3
			c0,1.1-1.1,3.2-1.1,4.3l-2.2,1.1l2.2,1.1l1.1-1.1c1.1-2.2,2.2-4.3,2.2-7.5c0-2.2-1.1-5.4-3.2-6.5c-1.1,0-2.2-2.2-2.2-3.2
			c2.2-1.1,5.4-2.2,7.5-2.2h1.1c3.2,0,5.4,1.1,7.5,2.2c0,2.2-1.1,3.2-2.2,4.3C84,58.6,83,61.8,83,64s1.1,5.4,2.2,7.5l1.1,1.1
			l2.2-1.1v-2.2c-1.1-1.1-1.1-3.2-1.1-4.3c3.2,1.1,7.5,2.2,9.7,4.3c1.1,0,1.1,0,2.2,0l3.2-3.2c1.1-1.1,2.2-3.2,2.2-4.3
			s0-2.2,1.1-2.2l-1.1-1.1c2.2,0,4.3,1.1,5.4,2.2c2.2,2.2,3.2,4.3,3.2,6.5l-1.1,1.1c-1.1,1.1-1.1,1.1-2.2,1.1
			c-2.2,0-3.2,1.1-4.3,2.2l-3.2,2.2c0,0-1.1,1.1,0,2.2c2.2,3.2,4.3,6.5,4.3,9.7c-1.1,0-3.2-1.1-4.3-1.1l-1.1-1.1l-1.1,2.2l1.1,1.1
			c2.2,1.1,4.3,2.2,7.5,2.2c2.2,0,5.4-1.1,6.5-3.2c1.1-1.1,2.2-2.2,4.3-2.2c1.1,2.2,2.2,5.4,2.2,7.5L120.7,92L120.7,92z"/>
		<path style="fill:#B3404A;" d="M71.1,78c0-2.2-2.2-4.3-4.3-4.3c-2.2,0-4.3,2.2-4.3,4.3c0,2.2,2.2,4.3,4.3,4.3
			C68.9,82.3,71.1,81.2,71.1,78z M65.7,78c0-1.1,1.1-1.1,1.1-1.1c1.1,0,1.1,1.1,1.1,1.1s0,2.2-1.1,2.2S65.7,79.1,65.7,78z"/>
		<path style="fill:#B3404A;" d="M93.7,86.6c0-4.3-3.2-6.5-6.5-6.5s-7.5,3.2-7.5,6.5s3.2,6.5,6.5,6.5S93.7,90.9,93.7,86.6z
			 M81.8,86.6c0-2.2,2.2-4.3,4.3-4.3s4.3,2.2,4.3,4.3c0,2.2-2.2,4.3-4.3,4.3S81.8,88.8,81.8,86.6z"/>
		<path style="fill:#B3404A;" d="M72.1,90.9c-4.3,0-7.5,3.2-7.5,8.6c0,4.3,3.2,8.6,8.6,8.6c4.3,0,8.6-3.2,8.6-8.6
			C80.8,94.2,77.5,90.9,72.1,90.9z M72.1,105c-3.2,0-5.4-2.2-5.4-5.4s2.2-5.4,5.4-5.4s5.4,2.2,5.4,5.4S75.4,105,72.1,105z"/>
		<path style="fill:#B3404A;" d="M91.5,97.4c-2.2,0-5.4,2.2-5.4,5.4s2.2,5.4,5.4,5.4c2.2,0,5.4-2.2,5.4-5.4S93.7,97.4,91.5,97.4z
			 M91.5,105c-1.1,0-2.2-1.1-2.2-2.2s1.1-2.2,2.2-2.2s2.2,1.1,2.2,2.2S92.6,105,91.5,105z"/>
		<path style="fill:#B3404A;" d="M94.8,72.6c-2.2,0-4.3,2.2-4.3,4.3s2.2,4.3,4.3,4.3c2.2,0,4.3-2.2,4.3-4.3
			C99.1,74.8,96.9,72.6,94.8,72.6z M94.8,78c-1.1,0-1.1-1.1-1.1-1.1l1.1-1.1l1.1,1.1C95.9,76.9,95.9,78,94.8,78z"/>
	</g>
</g>
</svg>
